<svg width="148" height="184" viewBox="0 0 148 184" fill="none" xmlns="http://www.w3.org/2000/svg">
<path d="M65.9525 86.4376L83.3633 82.7156C85.7573 82.2038 88.1343 83.7418 88.6455 86.1334C89.1568 88.525 87.6164 90.9005 85.2224 91.4123L67.8116 95.1343C65.4176 95.6461 63.0406 94.108 62.5293 91.7164C62.0181 89.3248 63.5585 86.9493 65.9525 86.4376ZM14.0929 116.394C8.54037 117.155 3.39255 113.168 2.21315 107.651L0.969842 101.835C-0.157266 96.5631 2.91064 90.8202 8.23656 88.9996L72.8439 66.776L114.467 57.8781C121.676 56.3369 128.774 60.9297 130.313 68.1317L134.032 85.5252C135.571 92.7272 130.972 99.8207 123.762 101.362L82.1396 110.26L14.0929 116.394ZM10.9186 105.79C11.1568 106.905 12.1759 107.653 13.2985 107.555L80.5797 101.499L121.903 92.665C124.297 92.1533 125.838 89.7778 125.326 87.3862L121.608 69.9927C121.097 67.6011 118.72 66.063 116.326 66.5748L75.0023 75.4088L11.1256 97.3909C10.0611 97.7605 9.43705 98.8602 9.67525 99.9745L10.9186 105.79ZM51.2863 166.873L50.3567 162.525C49.8431 160.123 51.3859 157.758 53.7799 157.246C56.1738 156.734 58.5485 158.262 59.0621 160.664L59.9917 165.012L103.519 155.707L99.8004 138.314L95.4477 139.244C88.2386 140.786 81.1405 136.193 79.6009 128.991L77.7418 120.294C77.2305 117.902 78.7709 115.527 81.1649 115.015C83.5589 114.503 85.9359 116.041 86.4472 118.433L88.3063 127.13C88.8176 129.521 91.1946 131.059 93.5886 130.548L128.41 123.104C130.804 122.592 132.345 120.216 131.833 117.825L129.974 109.128C129.463 106.736 131.003 104.361 133.397 103.849L142.103 101.988C144.497 101.476 146.874 103.014 147.385 105.406C147.896 107.798 146.356 110.173 143.962 110.685L139.609 111.615L140.539 115.964C141.503 120.475 140.072 124.959 137.062 128.046L133.09 149.386L138.34 148.263C140.734 147.752 143.109 149.279 143.623 151.681C144.136 154.084 142.594 156.448 140.2 156.96L61.8509 173.709L62.7804 178.058C63.2938 180.459 61.7513 182.825 59.3573 183.336C56.9633 183.848 54.5884 182.32 54.075 179.919L53.1455 175.57L44.4401 177.431C42.0352 177.945 39.6714 176.416 39.1578 174.013C38.6442 171.611 40.176 169.248 42.5809 168.734L51.2863 166.873ZM127.195 132.458L108.506 136.453L112.224 153.846L123.65 151.404L127.195 132.458ZM19.6808 19.0287L18.7512 14.6804C18.2399 12.2888 19.7803 9.91328 22.1743 9.40151C24.5683 8.88973 26.9453 10.4278 27.4566 12.8194L28.3862 17.1677L106.735 0.418738C109.129 -0.0930368 111.506 1.445 112.017 3.83661C112.528 6.22822 110.988 8.60371 108.594 9.11549L103.344 10.2379L115.694 28.0881C119.703 29.6751 122.842 33.1817 123.806 37.6931L124.736 42.0415L129.089 41.111C131.483 40.5992 133.86 42.1372 134.371 44.5288C134.882 46.9204 133.342 49.2959 130.948 49.8077L122.242 51.6687C119.848 52.1805 117.471 50.6424 116.96 48.2508L115.101 39.5541C114.59 37.1625 112.213 35.6244 109.819 36.1362L74.9971 43.5802C72.6031 44.092 71.0627 46.4675 71.574 48.8591L73.4331 57.5558C73.9444 59.9474 72.404 62.3229 70.01 62.8347C67.616 63.3465 65.239 61.8084 64.7277 59.4168L62.8686 50.7201C61.329 43.5181 65.9288 36.4246 73.138 34.8835L77.4907 33.953L73.7724 16.5595L30.2453 25.8645L31.1749 30.2129C31.6862 32.6045 30.1458 34.98 27.7518 35.4917C25.3578 36.0035 22.9808 34.4655 22.4695 32.0739L21.5399 27.7255L12.8345 29.5865C10.4297 30.1006 8.06351 28.5602 7.55224 26.1686C7.04098 23.777 8.5705 21.4038 10.9754 20.8897L19.6808 19.0287ZM86.1961 32.092L104.885 28.0966L93.9036 12.2559L82.4778 14.6985L86.1961 32.092Z" fill="black" fill-opacity="0.5"/>
</svg>
