<svg width="209" height="261" viewBox="0 0 209 360" fill="none" xmlns="http://www.w3.org/2000/svg">
<path d="M116.66 137.169L92.2332 143.05C88.8745 143.858 85.4655 141.775 84.6576 138.419C83.8498 135.064 85.9368 131.657 89.2955 130.848L113.723 124.967C117.081 124.159 120.49 126.242 121.298 129.598C122.106 132.953 120.019 136.36 116.66 137.169ZM188.735 93.03C196.54 91.7558 203.947 97.1933 205.81 104.934L207.775 113.093C209.556 120.49 205.436 128.703 197.988 131.464L107.65 165.155L49.2546 179.215C39.1403 181.65 28.9606 175.428 26.5279 165.324L20.6525 140.921C18.2198 130.817 24.4519 120.643 34.5662 118.208L92.962 104.148L188.735 93.03ZM193.597 107.874C193.22 106.311 191.756 105.292 190.175 105.471L95.4798 116.451L37.5039 130.409C34.1452 131.218 32.0581 134.625 32.866 137.98L38.7414 162.383C39.5492 165.738 42.9582 167.822 46.3169 167.013L104.293 153.055L193.609 119.731C195.097 119.171 195.938 117.597 195.561 116.034L193.597 107.874ZM134.437 23.1651L135.906 29.2657C136.718 32.6364 134.627 36.028 131.268 36.8367C127.909 37.6454 124.504 35.577 123.693 32.2063L122.224 26.1057L61.1562 40.8087L67.0316 65.2113L73.1383 63.741C83.2526 61.3059 93.4323 67.5279 95.8651 77.6321L98.8028 89.8335C99.6106 93.1888 97.5236 96.5958 94.1648 97.4044C90.8061 98.2131 87.3971 96.1294 86.5893 92.7741L83.6516 80.5727C82.8437 77.2174 79.4347 75.1337 76.076 75.9424L27.2221 87.7048C23.8634 88.5134 21.7763 91.9204 22.5842 95.2757L25.5218 107.477C26.3297 110.832 24.2426 114.239 20.8839 115.048L8.67043 117.989C5.31173 118.797 1.90271 116.714 1.09485 113.358C0.28699 110.003 2.37405 106.596 5.73276 105.787L11.8395 104.317L10.3707 98.2163C8.84675 91.8869 10.7033 85.51 14.8373 81.0455L19.6685 50.7975L12.3023 52.5711C8.94359 53.3797 5.53825 51.3113 4.72671 47.9407C3.91518 44.5701 6.00592 41.1784 9.36462 40.3697L119.286 13.9043L117.817 7.80367C117.006 4.43457 119.096 1.04136 122.455 0.232699C125.814 -0.575966 129.219 1.49397 130.031 4.86307L131.499 10.9637L143.713 8.02313C147.087 7.21079 150.477 9.28288 151.289 12.6535C152.1 16.0241 150.025 19.4121 146.651 20.2245L134.437 23.1651ZM28.5973 74.465L54.8181 68.1519L48.9428 43.7493L32.9126 47.6088L28.5973 74.465ZM184.378 230.588L185.846 236.688C186.654 240.044 184.567 243.451 181.209 244.259C177.85 245.068 174.441 242.984 173.633 239.629L172.164 233.528L62.2427 259.994C58.884 260.802 55.475 258.719 54.6672 255.363C53.8593 252.008 55.9464 248.601 59.3051 247.792L66.6713 246.019L48.6022 221.285C42.8892 219.191 38.3336 214.358 36.8097 208.028L35.3409 201.928L29.2341 203.398C25.8754 204.207 22.4664 202.123 21.6586 198.768C20.8507 195.412 22.9378 192.005 26.2965 191.197L38.51 188.256C41.8687 187.447 45.2777 189.531 46.0855 192.886L49.0232 205.088C49.8311 208.443 53.2401 210.527 56.5988 209.718L105.453 197.956C108.811 197.147 110.899 193.74 110.091 190.385L107.153 178.183C106.345 174.828 108.432 171.421 111.791 170.612C115.15 169.804 118.559 171.887 119.366 175.243L122.304 187.444C124.737 197.548 118.505 207.722 108.39 210.157L102.284 211.627L108.159 236.03L169.226 221.327L167.758 215.226C166.95 211.871 169.037 208.464 172.396 207.655C175.754 206.847 179.163 208.93 179.971 212.286L181.44 218.386L193.653 215.446C197.027 214.633 200.421 216.721 201.229 220.076C202.037 223.432 199.965 226.835 196.591 227.647L184.378 230.588ZM90.0702 214.568L63.8494 220.881L79.9153 242.83L95.9455 238.971L90.0702 214.568Z" fill="black" fill-opacity="0.5"/>
</svg>
